# xmcd
#
# Track frame offsets:
#	182
#	18820
#	35340
#	49570
#	68615
#	81175
#	91565
#	108357
#	127880
#	145627
#	162250
#	178945
#	196087
#	211625
#
# Disc length: 3057 seconds
#
# Revision: 1
# Processed by: cddbd v1.4PL0 Copyright (c) Steve Scherf et al.
# Submitted via: audiograbber 1.80.04
#
DISCID=a00bef0e
DTITLE=Memphis Slim - Boogies for all my friends
DYEAR=1988
DGENRE=Blues
TTITLE0=Boogie for Roosevelt
TTITLE1=Blues for Pete
TTITLE2=Roll and tumble
TTITLE3=Going back to memphis
TTITLE4=Boogie for Albert
TTITLE5=Boogie for Meade
TTITLE6=Boogie for Sammy
TTITLE7=Blues for Lay
TTITLE8=Slim's blues
TTITLE9=Boogie for Lloyd
TTITLE10=Shoemaker blues
TTITLE11=Boogie for Pinetop
TTITLE12=Blues for Jimmy
TTITLE13=Blues for Otis
EXTD=
EXTT0=
EXTT1=
EXTT2=
EXTT3=
EXTT4=
EXTT5=
EXTT6=
EXTT7=
EXTT8=
EXTT9=
EXTT10=
EXTT11=
EXTT12=
EXTT13=
PLAYORDER=
